<mxfile host="app.diagrams.net" modified="2023-07-24T13:50:06.841Z" agent="Mozilla/5.0 (Windows NT 10.0; Win64; x64) AppleWebKit/537.36 (KHTML, like Gecko) Chrome/115.0.0.0 Safari/537.36" etag="RNqtvSral6XgKNK0XAjT" version="21.3.5" type="github">
  <diagram id="6a731a19-8d31-9384-78a2-239565b7b9f0" name="Page-1">
    <mxGraphModel dx="1290" dy="-214" grid="1" gridSize="10" guides="1" tooltips="1" connect="1" arrows="1" fold="1" page="1" pageScale="1" pageWidth="1169" pageHeight="827" background="none" math="0" shadow="0">
      <root>
        <mxCell id="0" />
        <mxCell id="1" parent="0" />
        <mxCell id="t2b_PGSPaWhevGhsCux8-143" value="Actor" style="shape=umlActor;verticalLabelPosition=bottom;verticalAlign=top;html=1;outlineConnect=0;sketch=1;hachureGap=4;jiggle=2;curveFitting=1;fontFamily=Architects Daughter;fontSource=https%3A%2F%2Ffonts.googleapis.com%2Fcss%3Ffamily%3DArchitects%2BDaughter;fontSize=20;" parent="1" vertex="1">
          <mxGeometry x="40" y="1130" width="30" height="60" as="geometry" />
        </mxCell>
        <mxCell id="t2b_PGSPaWhevGhsCux8-144" value="" style="endArrow=classic;html=1;rounded=0;sketch=1;hachureGap=4;jiggle=2;curveFitting=1;fontFamily=Architects Daughter;fontSource=https%3A%2F%2Ffonts.googleapis.com%2Fcss%3Ffamily%3DArchitects%2BDaughter;fontSize=16;" parent="1" edge="1">
          <mxGeometry width="50" height="50" relative="1" as="geometry">
            <mxPoint x="80" y="1159.29" as="sourcePoint" />
            <mxPoint x="160" y="1159.29" as="targetPoint" />
          </mxGeometry>
        </mxCell>
        <mxCell id="t2b_PGSPaWhevGhsCux8-145" value="Microsoft Forms" style="rounded=0;whiteSpace=wrap;html=1;sketch=1;hachureGap=4;jiggle=2;curveFitting=1;fontFamily=Architects Daughter;fontSource=https%3A%2F%2Ffonts.googleapis.com%2Fcss%3Ffamily%3DArchitects%2BDaughter;fontSize=20;" parent="1" vertex="1">
          <mxGeometry x="170" y="1130" width="120" height="60" as="geometry" />
        </mxCell>
        <mxCell id="t2b_PGSPaWhevGhsCux8-147" value="" style="endArrow=classic;html=1;rounded=0;sketch=1;hachureGap=4;jiggle=2;curveFitting=1;fontFamily=Architects Daughter;fontSource=https%3A%2F%2Ffonts.googleapis.com%2Fcss%3Ffamily%3DArchitects%2BDaughter;fontSize=16;" parent="1" edge="1">
          <mxGeometry width="50" height="50" relative="1" as="geometry">
            <mxPoint x="300" y="1159.29" as="sourcePoint" />
            <mxPoint x="380" y="1159.29" as="targetPoint" />
          </mxGeometry>
        </mxCell>
        <mxCell id="t2b_PGSPaWhevGhsCux8-148" value="FirstAprroval Request" style="rounded=0;whiteSpace=wrap;html=1;sketch=1;hachureGap=4;jiggle=2;curveFitting=1;fontFamily=Architects Daughter;fontSource=https%3A%2F%2Ffonts.googleapis.com%2Fcss%3Ffamily%3DArchitects%2BDaughter;fontSize=20;" parent="1" vertex="1">
          <mxGeometry x="380" y="1130" width="230" height="60" as="geometry" />
        </mxCell>
        <mxCell id="t2b_PGSPaWhevGhsCux8-151" style="edgeStyle=orthogonalEdgeStyle;rounded=0;sketch=1;hachureGap=4;jiggle=2;curveFitting=1;orthogonalLoop=1;jettySize=auto;html=1;exitX=1;exitY=0;exitDx=0;exitDy=0;exitPerimeter=0;fontFamily=Architects Daughter;fontSource=https%3A%2F%2Ffonts.googleapis.com%2Fcss%3Ffamily%3DArchitects%2BDaughter;fontSize=16;" parent="1" source="t2b_PGSPaWhevGhsCux8-149" edge="1">
          <mxGeometry relative="1" as="geometry">
            <mxPoint x="800" y="1109.5714285714287" as="targetPoint" />
            <Array as="points">
              <mxPoint x="690" y="1110" />
              <mxPoint x="690" y="1110" />
            </Array>
          </mxGeometry>
        </mxCell>
        <mxCell id="t2b_PGSPaWhevGhsCux8-153" value="Approved" style="edgeLabel;html=1;align=center;verticalAlign=middle;resizable=0;points=[];fontSize=20;fontFamily=Architects Daughter;" parent="t2b_PGSPaWhevGhsCux8-151" vertex="1" connectable="0">
          <mxGeometry x="-0.2726" y="2" relative="1" as="geometry">
            <mxPoint as="offset" />
          </mxGeometry>
        </mxCell>
        <mxCell id="t2b_PGSPaWhevGhsCux8-169" style="edgeStyle=orthogonalEdgeStyle;rounded=0;sketch=1;hachureGap=4;jiggle=2;curveFitting=1;orthogonalLoop=1;jettySize=auto;html=1;exitX=1;exitY=1;exitDx=0;exitDy=0;exitPerimeter=0;fontFamily=Architects Daughter;fontSource=https%3A%2F%2Ffonts.googleapis.com%2Fcss%3Ffamily%3DArchitects%2BDaughter;fontSize=16;entryX=0;entryY=0.75;entryDx=0;entryDy=0;" parent="1" source="t2b_PGSPaWhevGhsCux8-149" target="t2b_PGSPaWhevGhsCux8-161" edge="1">
          <mxGeometry relative="1" as="geometry">
            <mxPoint x="635.5714285714289" y="1280" as="targetPoint" />
          </mxGeometry>
        </mxCell>
        <mxCell id="t2b_PGSPaWhevGhsCux8-149" value="" style="strokeWidth=2;html=1;shape=mxgraph.flowchart.annotation_2;align=left;labelPosition=right;pointerEvents=1;sketch=1;hachureGap=4;jiggle=2;curveFitting=1;fontFamily=Architects Daughter;fontSource=https%3A%2F%2Ffonts.googleapis.com%2Fcss%3Ffamily%3DArchitects%2BDaughter;fontSize=20;" parent="1" vertex="1">
          <mxGeometry x="610" y="1110" width="50" height="100" as="geometry" />
        </mxCell>
        <mxCell id="t2b_PGSPaWhevGhsCux8-155" value="Second Aprroval Request" style="rounded=0;whiteSpace=wrap;html=1;sketch=1;hachureGap=4;jiggle=2;curveFitting=1;fontFamily=Architects Daughter;fontSource=https%3A%2F%2Ffonts.googleapis.com%2Fcss%3Ffamily%3DArchitects%2BDaughter;fontSize=20;" parent="1" vertex="1">
          <mxGeometry x="800" y="1080.43" width="230" height="60" as="geometry" />
        </mxCell>
        <mxCell id="t2b_PGSPaWhevGhsCux8-156" style="edgeStyle=orthogonalEdgeStyle;rounded=0;sketch=1;hachureGap=4;jiggle=2;curveFitting=1;orthogonalLoop=1;jettySize=auto;html=1;exitX=1;exitY=0;exitDx=0;exitDy=0;exitPerimeter=0;fontFamily=Architects Daughter;fontSource=https%3A%2F%2Ffonts.googleapis.com%2Fcss%3Ffamily%3DArchitects%2BDaughter;fontSize=16;" parent="1" source="t2b_PGSPaWhevGhsCux8-160" edge="1">
          <mxGeometry relative="1" as="geometry">
            <mxPoint x="1220" y="1060.0014285714287" as="targetPoint" />
            <Array as="points">
              <mxPoint x="1110" y="1060.43" />
              <mxPoint x="1110" y="1060.43" />
            </Array>
          </mxGeometry>
        </mxCell>
        <mxCell id="t2b_PGSPaWhevGhsCux8-157" value="&amp;nbsp;Approved" style="edgeLabel;html=1;align=center;verticalAlign=middle;resizable=0;points=[];fontSize=20;fontFamily=Architects Daughter;" parent="t2b_PGSPaWhevGhsCux8-156" vertex="1" connectable="0">
          <mxGeometry x="-0.2726" y="2" relative="1" as="geometry">
            <mxPoint x="-11" as="offset" />
          </mxGeometry>
        </mxCell>
        <mxCell id="t2b_PGSPaWhevGhsCux8-171" style="edgeStyle=orthogonalEdgeStyle;rounded=0;sketch=1;hachureGap=4;jiggle=2;curveFitting=1;orthogonalLoop=1;jettySize=auto;html=1;exitX=1;exitY=1;exitDx=0;exitDy=0;exitPerimeter=0;entryX=1;entryY=0.75;entryDx=0;entryDy=0;fontFamily=Architects Daughter;fontSource=https%3A%2F%2Ffonts.googleapis.com%2Fcss%3Ffamily%3DArchitects%2BDaughter;fontSize=16;" parent="1" source="t2b_PGSPaWhevGhsCux8-160" target="t2b_PGSPaWhevGhsCux8-161" edge="1">
          <mxGeometry relative="1" as="geometry" />
        </mxCell>
        <mxCell id="t2b_PGSPaWhevGhsCux8-160" value="" style="strokeWidth=2;html=1;shape=mxgraph.flowchart.annotation_2;align=left;labelPosition=right;pointerEvents=1;sketch=1;hachureGap=4;jiggle=2;curveFitting=1;fontFamily=Architects Daughter;fontSource=https%3A%2F%2Ffonts.googleapis.com%2Fcss%3Ffamily%3DArchitects%2BDaughter;fontSize=20;" parent="1" vertex="1">
          <mxGeometry x="1030" y="1060.43" width="50" height="100" as="geometry" />
        </mxCell>
        <mxCell id="t2b_PGSPaWhevGhsCux8-161" value="Send a rejection email&amp;nbsp;" style="rounded=0;whiteSpace=wrap;html=1;sketch=1;hachureGap=4;jiggle=2;curveFitting=1;fontFamily=Architects Daughter;fontSource=https%3A%2F%2Ffonts.googleapis.com%2Fcss%3Ffamily%3DArchitects%2BDaughter;fontSize=20;" parent="1" vertex="1">
          <mxGeometry x="780" y="1241" width="250" height="60" as="geometry" />
        </mxCell>
        <mxCell id="t2b_PGSPaWhevGhsCux8-163" value="Send an approval email" style="rounded=0;whiteSpace=wrap;html=1;sketch=1;hachureGap=4;jiggle=2;curveFitting=1;fontFamily=Architects Daughter;fontSource=https%3A%2F%2Ffonts.googleapis.com%2Fcss%3Ffamily%3DArchitects%2BDaughter;fontSize=20;" parent="1" vertex="1">
          <mxGeometry x="1220" y="1030" width="230" height="60" as="geometry" />
        </mxCell>
        <mxCell id="t2b_PGSPaWhevGhsCux8-164" value="" style="endArrow=classic;html=1;rounded=0;sketch=1;hachureGap=4;jiggle=2;curveFitting=1;fontFamily=Architects Daughter;fontSource=https%3A%2F%2Ffonts.googleapis.com%2Fcss%3Ffamily%3DArchitects%2BDaughter;fontSize=16;" parent="1" edge="1">
          <mxGeometry width="50" height="50" relative="1" as="geometry">
            <mxPoint x="1450" y="1059.29" as="sourcePoint" />
            <mxPoint x="1530" y="1059.29" as="targetPoint" />
          </mxGeometry>
        </mxCell>
        <mxCell id="t2b_PGSPaWhevGhsCux8-165" value="Create a task in Microsoft Planner" style="rounded=0;whiteSpace=wrap;html=1;sketch=1;hachureGap=4;jiggle=2;curveFitting=1;fontFamily=Architects Daughter;fontSource=https%3A%2F%2Ffonts.googleapis.com%2Fcss%3Ffamily%3DArchitects%2BDaughter;fontSize=20;" parent="1" vertex="1">
          <mxGeometry x="1530" y="1030" width="230" height="60" as="geometry" />
        </mxCell>
        <mxCell id="t2b_PGSPaWhevGhsCux8-172" value="Rejected" style="edgeLabel;html=1;align=center;verticalAlign=middle;resizable=0;points=[];fontSize=20;fontFamily=Architects Daughter;" parent="1" vertex="1" connectable="0">
          <mxGeometry x="1120.0006436647768" y="1080.4253774869696" as="geometry">
            <mxPoint x="-44" y="133" as="offset" />
          </mxGeometry>
        </mxCell>
        <mxCell id="t2b_PGSPaWhevGhsCux8-173" value="Rejected" style="edgeLabel;html=1;align=center;verticalAlign=middle;resizable=0;points=[];fontSize=20;fontFamily=Architects Daughter;" parent="1" vertex="1" connectable="0">
          <mxGeometry x="750.0006436647768" y="1149.9953774869696" as="geometry">
            <mxPoint x="-44" y="133" as="offset" />
          </mxGeometry>
        </mxCell>
        <mxCell id="t2b_PGSPaWhevGhsCux8-174" value="First Phase" style="html=1;shadow=0;dashed=0;align=center;verticalAlign=middle;shape=mxgraph.arrows2.arrow;dy=0;dx=10;notch=10;sketch=1;hachureGap=4;jiggle=2;curveFitting=1;fontFamily=Architects Daughter;fontSource=https%3A%2F%2Ffonts.googleapis.com%2Fcss%3Ffamily%3DArchitects%2BDaughter;fontSize=20;" parent="1" vertex="1">
          <mxGeometry x="20" y="1340" width="310" height="100" as="geometry" />
        </mxCell>
        <mxCell id="t2b_PGSPaWhevGhsCux8-175" value="Second Phase" style="html=1;shadow=0;dashed=0;align=center;verticalAlign=middle;shape=mxgraph.arrows2.arrow;dy=0;dx=10;notch=10;sketch=1;hachureGap=4;jiggle=2;curveFitting=1;fontFamily=Architects Daughter;fontSource=https%3A%2F%2Ffonts.googleapis.com%2Fcss%3Ffamily%3DArchitects%2BDaughter;fontSize=20;" parent="1" vertex="1">
          <mxGeometry x="380" y="1340" width="640" height="100" as="geometry" />
        </mxCell>
        <mxCell id="t2b_PGSPaWhevGhsCux8-177" value="Third Phase" style="html=1;shadow=0;dashed=0;align=center;verticalAlign=middle;shape=mxgraph.arrows2.arrow;dy=0;dx=10;notch=10;sketch=1;hachureGap=4;jiggle=2;curveFitting=1;fontFamily=Architects Daughter;fontSource=https%3A%2F%2Ffonts.googleapis.com%2Fcss%3Ffamily%3DArchitects%2BDaughter;fontSize=20;" parent="1" vertex="1">
          <mxGeometry x="1060" y="1340" width="370" height="100" as="geometry" />
        </mxCell>
        <mxCell id="t2b_PGSPaWhevGhsCux8-178" value="Forth Phase" style="html=1;shadow=0;dashed=0;align=center;verticalAlign=middle;shape=mxgraph.arrows2.arrow;dy=0;dx=10;notch=10;sketch=1;hachureGap=4;jiggle=2;curveFitting=1;fontFamily=Architects Daughter;fontSource=https%3A%2F%2Ffonts.googleapis.com%2Fcss%3Ffamily%3DArchitects%2BDaughter;fontSize=20;" parent="1" vertex="1">
          <mxGeometry x="1520" y="1340" width="240" height="100" as="geometry" />
        </mxCell>
      </root>
    </mxGraphModel>
  </diagram>
</mxfile>
